Results
version=1
nRows=4
nColumns=143
inDegrees=yes
endheader
time	/jointset/groundthorax/r_z/value	/jointset/groundthorax/r_z/speed	/jointset/sternoclavicular/sternoclavicular_r2/value	/jointset/sternoclavicular/sternoclavicular_r2/speed	/jointset/sternoclavicular/sternoclavicular_r3/value	/jointset/sternoclavicular/sternoclavicular_r3/speed	/jointset/unrotscap/unrotscap_r3/value	/jointset/unrotscap/unrotscap_r3/speed	/jointset/unrotscap/unrotscap_r2/value	/jointset/unrotscap/unrotscap_r2/speed	/jointset/acromioclavicular/acromioclavicular_r2/value	/jointset/acromioclavicular/acromioclavicular_r2/speed	/jointset/acromioclavicular/acromioclavicular_r3/value	/jointset/acromioclavicular/acromioclavicular_r3/speed	/jointset/acromioclavicular/acromioclavicular_r1/value	/jointset/acromioclavicular/acromioclavicular_r1/speed	/jointset/unrothum/unrothum_r1/value	/jointset/unrothum/unrothum_r1/speed	/jointset/unrothum/unrothum_r3/value	/jointset/unrothum/unrothum_r3/speed	/jointset/unrothum/unrothum_r2/value	/jointset/unrothum/unrothum_r2/speed	/jointset/shoulder0/elv_angle/value	/jointset/shoulder0/elv_angle/speed	/jointset/shoulder1/shoulder_elv/value	/jointset/shoulder1/shoulder_elv/speed	/jointset/shoulder1/shoulder1_r2/value	/jointset/shoulder1/shoulder1_r2/speed	/jointset/shoulder2/shoulder_rot/value	/jointset/shoulder2/shoulder_rot/speed	/jointset/elbow/elbow_flexion/value	/jointset/elbow/elbow_flexion/speed	/jointset/radioulnar/pro_sup/value	/jointset/radioulnar/pro_sup/speed	/jointset/radiocarpal/deviation/value	/jointset/radiocarpal/deviation/speed	/jointset/radiocarpal/flexion/value	/jointset/radiocarpal/flexion/speed	/jointset/wrist_hand/wrist_hand_r1/value	/jointset/wrist_hand/wrist_hand_r1/speed	/jointset/wrist_hand/wrist_hand_r3/value	/jointset/wrist_hand/wrist_hand_r3/speed	/forceset/DELT1/activation	/forceset/DELT1/fiber_length	/forceset/DELT2/activation	/forceset/DELT2/fiber_length	/forceset/DELT3/activation	/forceset/DELT3/fiber_length	/forceset/SUPSP/activation	/forceset/SUPSP/fiber_length	/forceset/INFSP/activation	/forceset/INFSP/fiber_length	/forceset/SUBSC/activation	/forceset/SUBSC/fiber_length	/forceset/TMIN/activation	/forceset/TMIN/fiber_length	/forceset/TMAJ/activation	/forceset/TMAJ/fiber_length	/forceset/PECM1/activation	/forceset/PECM1/fiber_length	/forceset/PECM2/activation	/forceset/PECM2/fiber_length	/forceset/PECM3/activation	/forceset/PECM3/fiber_length	/forceset/LAT1/activation	/forceset/LAT1/fiber_length	/forceset/LAT2/activation	/forceset/LAT2/fiber_length	/forceset/LAT3/activation	/forceset/LAT3/fiber_length	/forceset/CORB/activation	/forceset/CORB/fiber_length	/forceset/TRIlong/activation	/forceset/TRIlong/fiber_length	/forceset/TRIlat/activation	/forceset/TRIlat/fiber_length	/forceset/TRImed/activation	/forceset/TRImed/fiber_length	/forceset/ANC/activation	/forceset/ANC/fiber_length	/forceset/SUP/activation	/forceset/SUP/fiber_length	/forceset/BIClong/activation	/forceset/BIClong/fiber_length	/forceset/BICshort/activation	/forceset/BICshort/fiber_length	/forceset/BRA/activation	/forceset/BRA/fiber_length	/forceset/BRD/activation	/forceset/BRD/fiber_length	/forceset/ECRL/activation	/forceset/ECRL/fiber_length	/forceset/ECRB/activation	/forceset/ECRB/fiber_length	/forceset/ECU/activation	/forceset/ECU/fiber_length	/forceset/FCR/activation	/forceset/FCR/fiber_length	/forceset/FCU/activation	/forceset/FCU/fiber_length	/forceset/PL/activation	/forceset/PL/fiber_length	/forceset/PT/activation	/forceset/PT/fiber_length	/forceset/PQ/activation	/forceset/PQ/fiber_length	/forceset/FDSL/activation	/forceset/FDSL/fiber_length	/forceset/FDSR/activation	/forceset/FDSR/fiber_length	/forceset/FDSM/activation	/forceset/FDSM/fiber_length	/forceset/FDSI/activation	/forceset/FDSI/fiber_length	/forceset/FDPL/activation	/forceset/FDPL/fiber_length	/forceset/FDPR/activation	/forceset/FDPR/fiber_length	/forceset/FDPM/activation	/forceset/FDPM/fiber_length	/forceset/FDPI/activation	/forceset/FDPI/fiber_length	/forceset/EDCL/activation	/forceset/EDCL/fiber_length	/forceset/EDCR/activation	/forceset/EDCR/fiber_length	/forceset/EDCM/activation	/forceset/EDCM/fiber_length	/forceset/EDCI/activation	/forceset/EDCI/fiber_length	/forceset/EDM/activation	/forceset/EDM/fiber_length	/forceset/EIP/activation	/forceset/EIP/fiber_length	/forceset/EPL/activation	/forceset/EPL/fiber_length	/forceset/EPB/activation	/forceset/EPB/fiber_length	/forceset/FPL/activation	/forceset/FPL/fiber_length	/forceset/APL/activation	/forceset/APL/fiber_length
      0.00000000	     10.00000028	      0.00000000	     -1.86161783	     -3.10221854	      0.78849345	      1.31395336	     -0.78849345	     -1.31395336	      1.86161783	      3.10221854	     -0.37693974	     -0.62813615	      3.04629440	      5.07637542	      1.36928837	      2.28179581	     -1.36928837	     -2.28179581	     -3.04629440	     -5.07637542	      0.37693974	      0.62813615	    -80.78713833	      4.79523069	      7.69261841	     12.81905615	     80.78713833	     -4.79523069	      0.90108028	     -3.68999815	     10.54373934	     -4.48117533	    -29.48113361	     -8.22823905	      0.30498796	      0.47867155	     -0.31914952	      1.02065672	     19.35313877	     23.52785726	     -9.14296020	     29.23966109	      0.00000000	      0.12418748	      0.00000000	      0.12275021	      0.00000000	      0.11557728	      0.00000000	      0.07400732	      0.00000000	      0.07947723	      0.00000000	      0.08092594	      0.00000000	      0.06052716	      0.00000000	      0.11582454	      0.00000000	      0.12681488	      0.00000000	      0.10240305	      0.00000000	      0.07790207	      0.00000000	      0.16485298	      0.00000000	      0.12808657	      0.00000000	      0.19175431	      0.00000000	      0.06885624	      0.00000000	      0.13519673	      0.00000000	      0.07480127	      0.00000000	      0.06978855	      0.00000000	      0.00521094	      0.00000000	      0.03024530	      0.00000000	      0.15785937	      0.00000000	      0.15634700	      0.00000000	      0.09050029	      0.00000000	      0.19636608	      0.00000000	      0.09048618	      0.00000000	      0.06124952	      0.00000000	      0.05345453	      0.00000000	      0.07545465	      0.00000000	      0.04696180	      0.00000000	      0.07789242	      0.00000000	      0.06361979	      0.00000000	      0.02992537	      0.00000000	      0.05571416	      0.00000000	      0.07805153	      0.00000000	      0.07996148	      0.00000000	      0.09279421	      0.00000000	      0.07825322	      0.00000000	      0.08278361	      0.00000000	      0.08004482	      0.00000000	      0.08092489	      0.00000000	      0.06828451	      0.00000000	      0.05447371	      0.00000000	      0.06844873	      0.00000000	      0.06401213	      0.00000000	      0.06575905	      0.00000000	      0.06151086	      0.00000000	      0.06246556	      0.00000000	      0.07575655	      0.00000000	      0.06751464	      0.00000000	      0.08039937
      0.00012332	     10.00000028	      0.00000000	     -1.86200030	     -3.10089407	      0.78865545	      1.31339238	     -0.78865545	     -1.31339238	      1.86200030	      3.10089407	     -0.37701719	     -0.62786797	      3.04692027	      5.07420810	      1.36956969	      2.28082162	     -1.36956969	     -2.28082162	     -3.04692027	     -5.07420810	      0.37701719	      0.62786797	    -80.78654645	      4.80408643	      7.69419888	     12.81358316	     80.78654645	     -4.80408643	      0.90065177	     -3.26148249	     10.54317844	     -4.61542102	    -29.48232941	    -11.14600038	      0.30504536	      0.45239899	     -0.31902366	      1.02067445	     19.35596015	     22.23406177	     -9.13935452	     29.24016900	      0.00000000	      0.12418807	      0.00000000	      0.12275029	      0.00000000	      0.11557728	      0.00000000	      0.07400733	      0.00000000	      0.07947723	      0.00000000	      0.08092594	      0.00000000	      0.06052716	      0.00000000	      0.11582454	      0.00000000	      0.12681880	      0.00000000	      0.10240331	      0.00000000	      0.07790230	      0.00000000	      0.16485298	      0.00000000	      0.12808657	      0.00000000	      0.19175431	      0.00000000	      0.06885637	      0.00000000	      0.13519673	      0.00000000	      0.07480127	      0.00000000	      0.06978855	      0.00000000	      0.00521094	      0.00000000	      0.03024530	      0.00000000	      0.15785960	      0.00000000	      0.15634713	      0.00000000	      0.09050031	      0.00000000	      0.19636610	      0.00000000	      0.09048626	      0.00000000	      0.06124959	      0.00000000	      0.05345453	      0.00000000	      0.07545466	      0.00000000	      0.04696180	      0.00000000	      0.07789242	      0.00000000	      0.06361986	      0.00000000	      0.02992542	      0.00000000	      0.05571416	      0.00000000	      0.07805153	      0.00000000	      0.07996148	      0.00000000	      0.09279421	      0.00000000	      0.07825322	      0.00000000	      0.08278361	      0.00000000	      0.08004482	      0.00000000	      0.08092489	      0.00000000	      0.06828453	      0.00000000	      0.05447374	      0.00000000	      0.06844877	      0.00000000	      0.06401218	      0.00000000	      0.06575906	      0.00000000	      0.06151092	      0.00000000	      0.06246566	      0.00000000	      0.07575663	      0.00000000	      0.06751464	      0.00000000	      0.08039942
      0.00024663	     10.00000028	      0.00000000	     -1.86238261	     -3.09955981	      0.78881737	      1.31282725	     -0.78881737	     -1.31282725	      1.86238261	      3.09955981	     -0.37709460	     -0.62759781	      3.04754587	      5.07202476	      1.36985090	      2.27984022	     -1.36985090	     -2.27984022	     -3.04754587	     -5.07202476	      0.37709460	      0.62759781	    -80.78595348	      4.81294861	      7.69577867	     12.80806970	     80.78595348	     -4.81294861	      0.90027534	     -2.84528313	     10.54260111	     -4.74784072	    -29.48387755	    -13.94328845	      0.30509956	      0.42660514	     -0.31889777	      1.02106684	     19.35862345	     20.96420251	     -9.13574813	     29.25141014	      0.00000000	      0.12418924	      0.00000000	      0.12275050	      0.00000000	      0.11557728	      0.00000000	      0.07400738	      0.00000000	      0.07947723	      0.00000000	      0.08092594	      0.00000000	      0.06052716	      0.00000000	      0.11582454	      0.00000000	      0.12681880	      0.00000000	      0.10240394	      0.00000000	      0.07790286	      0.00000000	      0.16485298	      0.00000000	      0.12808657	      0.00000000	      0.19175431	      0.00000000	      0.06885669	      0.00000000	      0.13519673	      0.00000000	      0.07480127	      0.00000000	      0.06978855	      0.00000000	      0.00521094	      0.00000000	      0.03024530	      0.00000000	      0.15786009	      0.00000000	      0.15634747	      0.00000000	      0.09050035	      0.00000000	      0.19636616	      0.00000000	      0.09048648	      0.00000000	      0.06124978	      0.00000000	      0.05345453	      0.00000000	      0.07545466	      0.00000000	      0.04696180	      0.00000000	      0.07789242	      0.00000000	      0.06362003	      0.00000000	      0.02992554	      0.00000000	      0.05571416	      0.00000000	      0.07805153	      0.00000000	      0.07996148	      0.00000000	      0.09279421	      0.00000000	      0.07825322	      0.00000000	      0.08278361	      0.00000000	      0.08004482	      0.00000000	      0.08092489	      0.00000000	      0.06828458	      0.00000000	      0.05447382	      0.00000000	      0.06844890	      0.00000000	      0.06401231	      0.00000000	      0.06575910	      0.00000000	      0.06151109	      0.00000000	      0.06246585	      0.00000000	      0.07575685	      0.00000000	      0.06751464	      0.00000000	      0.08039954
      0.00084825	     10.00000028	      0.00000000	     -1.86424538	     -3.09299996	      0.78960636	      1.31004880	     -0.78960636	     -1.31004880	      1.86424538	      3.09299996	     -0.37747177	     -0.62626958	      3.05059405	      5.06129042	      1.37122103	      2.27501521	     -1.37122103	     -2.27501521	     -3.05059405	     -5.06129042	      0.37747177	      0.62626958	    -80.78304491	      4.85627304	      7.70347604	     12.78096294	     80.78304491	     -4.85627304	      0.89914277	     -0.95712548	     10.53955494	     -5.37299450	    -29.49602756	    -26.03601506	      0.30531971	      0.30690199	     -0.31828191	      1.02745161	     19.36943973	     15.07542084	     -9.11810513	     29.43432040	      0.00000000	      0.12419563	      0.00000000	      0.12275269	      0.00000000	      0.11557728	      0.00000000	      0.07400781	      0.00000000	      0.07947737	      0.00000000	      0.08092594	      0.00000000	      0.06052716	      0.00000000	      0.11582454	      0.00000000	      0.12682666	      0.00000000	      0.10240828	      0.00000000	      0.07790685	      0.00000000	      0.16485298	      0.00000000	      0.12808657	      0.00000000	      0.19175431	      0.00000000	      0.06885954	      0.00000000	      0.13519673	      0.00000000	      0.07480127	      0.00000000	      0.06978855	      0.00000000	      0.00521094	      0.00000000	      0.03024530	      0.00000000	      0.15786271	      0.00000000	      0.15635006	      0.00000000	      0.09050080	      0.00000000	      0.19636672	      0.00000000	      0.09048926	      0.00000000	      0.06125236	      0.00000000	      0.05345453	      0.00000000	      0.07545466	      0.00000000	      0.04696180	      0.00000000	      0.07789242	      0.00000000	      0.06362180	      0.00000000	      0.02992643	      0.00000000	      0.05571416	      0.00000000	      0.07805153	      0.00000000	      0.07996148	      0.00000000	      0.09279421	      0.00000000	      0.07825322	      0.00000000	      0.08278361	      0.00000000	      0.08004482	      0.00000000	      0.08092489	      0.00000000	      0.06828535	      0.00000000	      0.05447503	      0.00000000	      0.06845060	      0.00000000	      0.06401409	      0.00000000	      0.06575972	      0.00000000	      0.06151347	      0.00000000	      0.06246788	      0.00000000	      0.07575918	      0.00000000	      0.06751464	      0.00000000	      0.08040063
